# xmcd
#
# Track frame offsets:
#	150
#	19562
#	39811
#	60932
#	80191
#	91654
#	108466
#	129158
#	143861
#	168587
#	185500
#	205743
#	216632
#
# Disc length: 3112 seconds
#
# Revision: 1
# Processed by: cddbd v1.5.2PL0 Copyright (c) Steve Scherf et al.
# Submitted via: audiograbber 1.83.01
#
DISCID=ab0c260d
DTITLE=Brother Love Kain - Brother Love Kain
DYEAR=2008
DGENRE=Sludge
TTITLE0=In the end everything starts to begin
TTITLE1=Never aimed the target
TTITLE2=Purges
TTITLE3=Das Mann
TTITLE4=Kain
TTITLE5=Trace the twine
TTITLE6=Der Herr trägt schwarz
TTITLE7=Do not disturb
TTITLE8=Mr. Fine
TTITLE9=Undone
TTITLE10=Abel
TTITLE11=In da laundry (WA 535 CE)
TTITLE12=Trink den Wein
EXTD=
EXTT0=
EXTT1=
EXTT2=
EXTT3=
EXTT4=
EXTT5=
EXTT6=
EXTT7=
EXTT8=
EXTT9=
EXTT10=
EXTT11=
EXTT12=
PLAYORDER=
